<svg xmlns="http://www.w3.org/2000/svg" viewBox="0 0 82.72 84.26"><g id="Capa_2" data-name="Capa 2"><path d="M50.83,62.43l-2-2.64L42.61,64c-1.16.78-1.31.78-2.46,0-3-2-6-4-8.93-6a18.72,18.72,0,0,1-8.63-15.82c-.09-4.71,0-9.43,0-14.14a1.26,1.26,0,0,1,.91-1.36c5.73-2.27,11.45-4.59,17.19-6.84a2.13,2.13,0,0,1,1.45,0c5.71,2.25,11.41,4.54,17.11,6.81a1.3,1.3,0,0,1,1,1.33c-.05,5.23,0,10.46-.16,15.69a26.15,26.15,0,0,1-1,4.7c-.06.24-.15.48-.23.76a8.06,8.06,0,0,1,4.31,4,7.84,7.84,0,0,1-1.46,8.72,7.76,7.76,0,0,1-8.56,1.8,1.41,1.41,0,0,0-1.56.16c-2.17,1.51-4.37,3-6.56,4.44a6.06,6.06,0,0,1-7.31,0c-3-2-6.07-4.05-9.08-6.11A23.69,23.69,0,0,1,17.72,41.94c-.07-5,0-10.11,0-15.17a3.77,3.77,0,0,1,2.73-4l4.87-2c.55-.22,1.12-.36,1.39.32s-.24,1-.79,1.19c-1.68.67-3.35,1.36-5,2a2.23,2.23,0,0,0-1.55,2.32c0,5.2-.06,10.4,0,15.6a21.66,21.66,0,0,0,9.37,18c3.33,2.41,6.8,4.62,10.22,6.89a4.1,4.1,0,0,0,4.78.05C46.12,65.64,48.46,64,50.83,62.43Zm7.82-26.36h-.09c0-2.36,0-4.72,0-7.08a1.06,1.06,0,0,0-.78-1.2C52.51,25.7,47.24,23.57,42,21.49a1.66,1.66,0,0,0-1.12,0c-5.34,2.11-10.66,4.26-16,6.37a1,1,0,0,0-.68,1.09c0,4.43-.05,8.86,0,13.28A16.79,16.79,0,0,0,31.28,56c3.12,2.3,6.41,4.38,9.64,6.52a1.06,1.06,0,0,0,.95,0c2-1.3,4-2.66,6-4,.46-.3.49-.63.5-1.14a12.09,12.09,0,0,1,.3-3.3,7.55,7.55,0,0,1,7.62-5.43c.84,0,1.19-.25,1.36-1a18.93,18.93,0,0,0,.72-3.09C58.51,41.76,58.55,38.91,58.65,36.07ZM49.87,56.45A6.15,6.15,0,0,0,56,62.65a6.21,6.21,0,1,0-6.17-6.2Z" fill="gray"/><path d="M64.9,34.77c0,3.19.06,6.38,0,9.57a24.07,24.07,0,0,1-.62,3.72c-.1.52-.41.87-1,.75s-.75-.6-.6-1.13a27.48,27.48,0,0,0,.74-7.61c0-4.36,0-8.73,0-13.1,0-1.68-.33-2.19-1.87-2.8q-9.47-3.8-18.92-7.6a3.1,3.1,0,0,0-2.48,0c-2.79,1.15-5.59,2.25-8.39,3.37l-.4.16c-.51.2-1.05.32-1.3-.34s.15-.93.71-1.15c2.74-1.08,5.51-2.13,8.21-3.32a5.75,5.75,0,0,1,4.8,0c6.15,2.54,12.34,5,18.52,7.46A3.85,3.85,0,0,1,65,26.84v7.93Z" fill="gray"/><path d="M40.49,31.62H36.43c-.69,0-1.38,0-2.07,0s-1.51.06-1.56.26A2.89,2.89,0,0,0,33,34.44c1.1,1.47,2.16,3,3.27,4.44a2.31,2.31,0,0,1,.39,2.19,5,5,0,0,1-9.6,0,2.31,2.31,0,0,1,.39-2.19c1-1.25,1.84-2.57,2.82-3.81a3,3,0,0,0,.79-2.44,4,4,0,0,1,0-.69,1.88,1.88,0,0,1,2-1.92h7.49c0-.6,0-1.16,0-1.72s.26-1,.84-1,.77.43.77,1V30c.39,0,.69.05,1,.05h6.47a1.78,1.78,0,0,1,2,2,4.62,4.62,0,0,0,1.18,3.53c.91,1.07,1.67,2.27,2.52,3.39A2.23,2.23,0,0,1,55.65,41,5,5,0,0,1,46,41a2.27,2.27,0,0,1,.39-2.1c1.08-1.42,2.07-2.91,3.18-4.3.66-.84.4-1.75.41-2.64,0-.11-.32-.33-.49-.33-2.41,0-4.81,0-7.29,0,0,.36-.06.63-.06.91,0,4.23,0,8.45,0,12.68a2,2,0,0,0,.54,1.23c1.16,1.2,2.37,2.35,3.58,3.49a1.62,1.62,0,0,1-1.19,2.91H37.62a1.64,1.64,0,0,1-1.78-1.06,1.68,1.68,0,0,1,.63-1.91c1.23-1.16,2.46-2.33,3.66-3.53a1.41,1.41,0,0,0,.42-.86c0-4.45,0-8.91,0-13.37C40.56,32,40.52,31.85,40.49,31.62ZM37.8,51.19h6.92l-3.47-3.84Zm10-10.33A3.15,3.15,0,0,0,51,43.14a3.09,3.09,0,0,0,3-2.28ZM35,40.87H28.8a3.16,3.16,0,0,0,2.95,2.27A3.26,3.26,0,0,0,35,40.87ZM31.89,35.6l-2.56,3.5h5.13Zm21.56,3.55-2.6-3.55-2.59,3.55Z" fill="gray"/><path d="M55.43,57l2.45-2.57c.42-.43.9-.72,1.41-.19s.13,1-.26,1.34c-1,.95-1.92,1.89-2.86,2.86a1,1,0,0,1-1.62,0,8.67,8.67,0,0,1-1.18-1.25,1.22,1.22,0,0,1,0-1.1c.11-.17.73-.13,1,0A4.84,4.84,0,0,1,55.43,57Z" fill="gray"/></g></svg>